<svg width="124" height="18" viewBox="0 0 124 18" fill="none" xmlns="http://www.w3.org/2000/svg">
<path d="M10.8225 12.0725C10.8225 13.7975 10.3875 15.11 9.5175 16.01C8.6475 16.91 7.35 17.36 5.625 17.36C4.56 17.36 3.63 17.165 2.835 16.775C2.055 16.37 1.455 15.8075 1.035 15.0875C0.615 14.3525 0.405 13.4975 0.405 12.5225V12.1175H3.6C3.6 12.9125 3.75 13.4975 4.05 13.8725C4.365 14.2325 4.845 14.4125 5.49 14.4125C6 14.4125 6.3825 14.3075 6.6375 14.0975C6.9075 13.8725 7.08 13.595 7.155 13.265C7.245 12.935 7.29 12.5375 7.29 12.0725V1.4525H10.8225V12.0725ZM16.7549 1.925C16.7549 2.27 16.6724 2.5775 16.5074 2.8475C16.3574 3.1175 16.1399 3.335 15.8549 3.5C15.5699 3.65 15.2474 3.725 14.8874 3.725C14.5274 3.725 14.2049 3.65 13.9199 3.5C13.6349 3.335 13.4099 3.1175 13.2449 2.8475C13.0949 2.5775 13.0199 2.27 13.0199 1.925C13.0199 1.58 13.0949 1.2725 13.2449 1.0025C13.4099 0.732499 13.6349 0.522499 13.9199 0.372499C14.2049 0.207499 14.5274 0.124999 14.8874 0.124999C15.2474 0.124999 15.5699 0.207499 15.8549 0.372499C16.1399 0.522499 16.3574 0.732499 16.5074 1.0025C16.6724 1.2725 16.7549 1.58 16.7549 1.925ZM16.4849 5.3675V17H13.2899V5.3675H16.4849ZM30.0403 11.195C30.0403 12.425 29.7928 13.505 29.2978 14.435C28.8028 15.35 28.1128 16.0625 27.2278 16.5725C26.3428 17.0675 25.3228 17.315 24.1678 17.315C22.9828 17.315 21.9478 17.06 21.0628 16.55C20.1778 16.04 19.4953 15.3275 19.0153 14.4125C18.5353 13.4825 18.2953 12.41 18.2953 11.195C18.2953 9.965 18.5353 8.8925 19.0153 7.9775C19.4953 7.0475 20.1778 6.3275 21.0628 5.8175C21.9478 5.3075 22.9828 5.0525 24.1678 5.0525C25.3528 5.0525 26.3878 5.3075 27.2728 5.8175C28.1578 6.3275 28.8403 7.0475 29.3203 7.9775C29.8003 8.9075 30.0403 9.98 30.0403 11.195ZM24.1678 14.885C25.0378 14.885 25.6978 14.5625 26.1478 13.9175C26.6128 13.2725 26.8453 12.365 26.8453 11.195C26.8453 10.115 26.6353 9.23 26.2153 8.54C25.7953 7.835 25.1053 7.4825 24.1453 7.4825C23.3053 7.4825 22.6528 7.805 22.1878 8.45C21.7228 9.095 21.4903 10.01 21.4903 11.195C21.4903 12.38 21.7153 13.295 22.1653 13.94C22.6303 14.57 23.2978 14.885 24.1678 14.885ZM39.5197 1.4525C42.8047 1.4525 44.4472 2.735 44.4472 5.3C44.4472 6.065 44.2672 6.71 43.9072 7.235C43.5622 7.76 43.0447 8.195 42.3547 8.54V8.585C43.2997 8.855 44.0047 9.3275 44.4697 10.0025C44.9497 10.6625 45.1897 11.4875 45.1897 12.4775C45.1897 13.4525 44.9422 14.285 44.4472 14.975C43.9522 15.65 43.2847 16.16 42.4447 16.505C41.6197 16.835 40.7122 17 39.7222 17H32.0722V1.4525H39.5197ZM39.0022 7.73C39.6472 7.73 40.1422 7.58 40.4872 7.28C40.8472 6.98 41.0272 6.53 41.0272 5.93C41.0272 4.79 40.2847 4.22 38.7997 4.22H35.6047V7.73H39.0022ZM39.2047 14.2325C39.9997 14.2325 40.6072 14.0675 41.0272 13.7375C41.4472 13.4075 41.6572 12.9125 41.6572 12.2525C41.6572 11.5475 41.4472 11.015 41.0272 10.655C40.6222 10.295 40.0447 10.115 39.2947 10.115H35.6047V14.2325H39.2047ZM50.0755 11.7575C50.0755 12.8375 50.2405 13.61 50.5705 14.075C50.9155 14.54 51.4405 14.7725 52.1455 14.7725C52.8805 14.7725 53.4355 14.54 53.8105 14.075C54.1855 13.595 54.373 12.8225 54.373 11.7575V5.3675H57.568V17H54.508V15.38H54.463C54.088 15.98 53.593 16.4525 52.978 16.7975C52.378 17.1425 51.733 17.315 51.043 17.315C49.648 17.315 48.6055 16.9325 47.9155 16.1675C47.2255 15.3875 46.8805 14.2175 46.8805 12.6575V5.3675H50.0755V11.7575ZM66.2683 8.4725C66.2383 8.0225 66.0583 7.7 65.7283 7.505C65.3983 7.295 64.9183 7.19 64.2883 7.19C63.7033 7.19 63.2608 7.2875 62.9608 7.4825C62.6758 7.6625 62.5333 7.925 62.5333 8.27C62.5333 8.54 62.6158 8.765 62.7808 8.945C62.9458 9.11 63.1858 9.2525 63.5008 9.3725C63.8308 9.4925 64.2733 9.6125 64.8283 9.7325L66.1333 10.025C67.3183 10.295 68.1958 10.715 68.7658 11.285C69.3358 11.84 69.6208 12.5675 69.6208 13.4675C69.6208 14.3675 69.3808 15.11 68.9008 15.695C68.4358 16.265 67.8133 16.6775 67.0333 16.9325C66.2533 17.1875 65.3833 17.315 64.4233 17.315C63.3883 17.315 62.4733 17.1725 61.6783 16.8875C60.8833 16.6025 60.2533 16.1825 59.7883 15.6275C59.3383 15.0575 59.1133 14.36 59.1133 13.535H62.1508C62.1658 14.06 62.3833 14.465 62.8033 14.75C63.2383 15.035 63.7858 15.1775 64.4458 15.1775C65.0158 15.1775 65.4883 15.065 65.8633 14.84C66.2383 14.615 66.4258 14.2775 66.4258 13.8275C66.4258 13.4375 66.2533 13.115 65.9083 12.86C65.5633 12.59 65.0158 12.3725 64.2658 12.2075L62.9833 11.915C62.1283 11.72 61.4308 11.48 60.8908 11.195C60.3658 10.895 59.9758 10.535 59.7208 10.115C59.4658 9.695 59.3383 9.185 59.3383 8.585C59.3383 7.82 59.5483 7.175 59.9683 6.65C60.3883 6.125 60.9733 5.7275 61.7233 5.4575C62.4733 5.1875 63.3508 5.0525 64.3558 5.0525C65.8858 5.0525 67.0708 5.345 67.9108 5.93C68.7658 6.515 69.2233 7.3625 69.2833 8.4725H66.2683ZM74.7056 1.925C74.7056 2.27 74.6231 2.5775 74.4581 2.8475C74.3081 3.1175 74.0906 3.335 73.8056 3.5C73.5206 3.65 73.1981 3.725 72.8381 3.725C72.4781 3.725 72.1556 3.65 71.8706 3.5C71.5856 3.335 71.3606 3.1175 71.1956 2.8475C71.0456 2.5775 70.9706 2.27 70.9706 1.925C70.9706 1.58 71.0456 1.2725 71.1956 1.0025C71.3606 0.732499 71.5856 0.522499 71.8706 0.372499C72.1556 0.207499 72.4781 0.124999 72.8381 0.124999C73.1981 0.124999 73.5206 0.207499 73.8056 0.372499C74.0906 0.522499 74.3081 0.732499 74.4581 1.0025C74.6231 1.2725 74.7056 1.58 74.7056 1.925ZM74.4356 5.3675V17H71.2406V5.3675H74.4356ZM87.2935 17H84.0985V10.61C84.0985 9.53 83.926 8.7575 83.581 8.2925C83.251 7.8275 82.7335 7.595 82.0285 7.595C81.2935 7.595 80.7385 7.835 80.3635 8.315C79.9885 8.78 79.801 9.545 79.801 10.61V17H76.606V5.3675H79.666V6.9875H79.711C80.086 6.3875 80.5735 5.915 81.1735 5.57C81.7885 5.225 82.441 5.0525 83.131 5.0525C84.526 5.0525 85.5685 5.4425 86.2585 6.2225C86.9485 6.9875 87.2935 8.15 87.2935 9.71V17ZM100.156 11.96H91.9888C92.0338 12.95 92.2963 13.6925 92.7763 14.1875C93.2563 14.6675 93.9463 14.9075 94.8463 14.9075C95.4613 14.9075 95.9713 14.7875 96.3763 14.5475C96.7813 14.3075 97.0288 14 97.1188 13.625H99.9538C99.6388 14.825 99.0238 15.74 98.1088 16.37C97.2088 17 96.0688 17.315 94.6888 17.315C93.4888 17.315 92.4463 17.0675 91.5613 16.5725C90.6763 16.0625 89.9938 15.35 89.5138 14.435C89.0488 13.505 88.8163 12.425 88.8163 11.195C88.8163 10.04 89.0563 8.9975 89.5363 8.0675C90.0313 7.1225 90.7138 6.3875 91.5838 5.8625C92.4688 5.3225 93.4738 5.0525 94.5988 5.0525C95.7988 5.0525 96.8113 5.33 97.6363 5.885C98.4763 6.425 99.1063 7.175 99.5263 8.135C99.9613 9.095 100.179 10.1825 100.179 11.3975L100.156 11.96ZM96.9838 9.935C96.8338 8.285 96.0238 7.46 94.5538 7.46C93.8188 7.46 93.2263 7.6775 92.7763 8.1125C92.3413 8.5475 92.0788 9.155 91.9888 9.935H96.9838ZM108.349 8.4725C108.319 8.0225 108.139 7.7 107.809 7.505C107.479 7.295 106.999 7.19 106.369 7.19C105.784 7.19 105.341 7.2875 105.041 7.4825C104.756 7.6625 104.614 7.925 104.614 8.27C104.614 8.54 104.696 8.765 104.861 8.945C105.026 9.11 105.266 9.2525 105.581 9.3725C105.911 9.4925 106.354 9.6125 106.909 9.7325L108.214 10.025C109.399 10.295 110.276 10.715 110.846 11.285C111.416 11.84 111.701 12.5675 111.701 13.4675C111.701 14.3675 111.461 15.11 110.981 15.695C110.516 16.265 109.894 16.6775 109.114 16.9325C108.334 17.1875 107.464 17.315 106.504 17.315C105.469 17.315 104.554 17.1725 103.759 16.8875C102.964 16.6025 102.334 16.1825 101.869 15.6275C101.419 15.0575 101.194 14.36 101.194 13.535H104.231C104.246 14.06 104.464 14.465 104.884 14.75C105.319 15.035 105.866 15.1775 106.526 15.1775C107.096 15.1775 107.569 15.065 107.944 14.84C108.319 14.615 108.506 14.2775 108.506 13.8275C108.506 13.4375 108.334 13.115 107.989 12.86C107.644 12.59 107.096 12.3725 106.346 12.2075L105.064 11.915C104.209 11.72 103.511 11.48 102.971 11.195C102.446 10.895 102.056 10.535 101.801 10.115C101.546 9.695 101.419 9.185 101.419 8.585C101.419 7.82 101.629 7.175 102.049 6.65C102.469 6.125 103.054 5.7275 103.804 5.4575C104.554 5.1875 105.431 5.0525 106.436 5.0525C107.966 5.0525 109.151 5.345 109.991 5.93C110.846 6.515 111.304 7.3625 111.364 8.4725H108.349ZM119.868 8.4725C119.838 8.0225 119.658 7.7 119.328 7.505C118.998 7.295 118.518 7.19 117.888 7.19C117.303 7.19 116.861 7.2875 116.561 7.4825C116.276 7.6625 116.133 7.925 116.133 8.27C116.133 8.54 116.216 8.765 116.381 8.945C116.546 9.11 116.786 9.2525 117.101 9.3725C117.431 9.4925 117.873 9.6125 118.428 9.7325L119.733 10.025C120.918 10.295 121.796 10.715 122.366 11.285C122.936 11.84 123.221 12.5675 123.221 13.4675C123.221 14.3675 122.981 15.11 122.501 15.695C122.036 16.265 121.413 16.6775 120.633 16.9325C119.853 17.1875 118.983 17.315 118.023 17.315C116.988 17.315 116.073 17.1725 115.278 16.8875C114.483 16.6025 113.853 16.1825 113.388 15.6275C112.938 15.0575 112.713 14.36 112.713 13.535H115.751C115.766 14.06 115.983 14.465 116.403 14.75C116.838 15.035 117.386 15.1775 118.046 15.1775C118.616 15.1775 119.088 15.065 119.463 14.84C119.838 14.615 120.026 14.2775 120.026 13.8275C120.026 13.4375 119.853 13.115 119.508 12.86C119.163 12.59 118.616 12.3725 117.866 12.2075L116.583 11.915C115.728 11.72 115.031 11.48 114.491 11.195C113.966 10.895 113.576 10.535 113.321 10.115C113.066 9.695 112.938 9.185 112.938 8.585C112.938 7.82 113.148 7.175 113.568 6.65C113.988 6.125 114.573 5.7275 115.323 5.4575C116.073 5.1875 116.951 5.0525 117.956 5.0525C119.486 5.0525 120.671 5.345 121.511 5.93C122.366 6.515 122.823 7.3625 122.883 8.4725H119.868Z" fill="white"/>
</svg>
